<svg xmlns="http://www.w3.org/2000/svg" width="20.028" height="14.5" viewBox="0 0 20.028 14.5"><path d="M17.4,23.874h1.106a1.542,1.542,0,0,0,1.1-.47,1.613,1.613,0,0,0,.451-1.122,1.576,1.576,0,0,0-1.555-1.592h-.3V19.65H7.593v1.459a5.143,5.143,0,0,0,.218,1.481c-.2,0-.4-.022-.6-.022a9.459,9.459,0,0,0-3.47.655.8.8,0,0,0-.5.868l.029.194A8.124,8.124,0,0,0,1.73,25.347a.8.8,0,0,0-.252.714l.058.366A9.91,9.91,0,0,0,.292,27.485a.862.862,0,0,0-.188.947.8.8,0,0,0,.719.5H13.529a.8.8,0,0,0,.732-.507.86.86,0,0,0-.186-.945,9.818,9.818,0,0,0-.761-.671h4.224a1.061,1.061,0,0,0,.751-.31l.486-.486H19.4v-.531H15.781A5.168,5.168,0,0,0,17.4,23.874Zm.8-2.653h.308a1.045,1.045,0,0,1,1.024,1.061,1.083,1.083,0,0,1-.3.751,1.014,1.014,0,0,1-.724.31H17.7c.021-.045.045-.088.066-.133a5.041,5.041,0,0,0,.438-1.99ZM.583,28.233a.337.337,0,0,1,.069-.369,9.411,9.411,0,0,1,.982-.838l.218,1.382H.822a.265.265,0,0,1-.239-.175Zm1.425-2.239a.265.265,0,0,1,.08-.236,7.588,7.588,0,0,1,1.274-.913l.562,3.566H2.388Zm7.917,2.417H4.46l-.692-4.4a.265.265,0,0,1,.172-.292,8.992,8.992,0,0,1,6.546,0,.265.265,0,0,1,.172.292l-.69,4.4Zm2.07,0H10.5l.56-3.563a7.5,7.5,0,0,1,1.274.91.265.265,0,0,1,.08.236l-.379,2.417Zm1.772-.178a.265.265,0,0,1-.241.175h-.955l.21-1.327a9.318,9.318,0,0,1,.918.8A.334.334,0,0,1,13.767,28.233Zm4.155-2.1a.531.531,0,0,1-.374.157H12.905l.034-.212v-.053h5.092Zm-3.351-.645H12.8a.772.772,0,0,0-.114-.13A8.026,8.026,0,0,0,11.149,24.3l.032-.2a.8.8,0,0,0-.5-.868,9.4,9.4,0,0,0-2.29-.578,4.609,4.609,0,0,1-.265-1.534v-.929h9.552v.929a4.564,4.564,0,0,1-.4,1.884,4.654,4.654,0,0,1-2.706,2.483Z" transform="translate(-0.036 -14.436)"/><path d="M44.324,3.639c.2.18.31.284.31.509s-.106.329-.308.509a1.138,1.138,0,0,0-.486.9h.531c0-.223.106-.329.308-.509a1.138,1.138,0,0,0,.483-.9,1.138,1.138,0,0,0-.5-.91c-.2-.18-.31-.284-.31-.509s.106-.329.308-.509a1.138,1.138,0,0,0,.486-.9h-.531c0,.223-.106.329-.308.509a1.138,1.138,0,0,0-.488.9,1.138,1.138,0,0,0,.5.9Z" transform="translate(-32.203 -0.97)"/><path d="M52.648,3.338a1.138,1.138,0,0,0-.488.907h.531c0-.226.106-.329.31-.509a1.138,1.138,0,0,0,.488-.9A1.138,1.138,0,0,0,53,1.924c-.2-.18-.308-.287-.308-.509s.106-.329.31-.509a1.138,1.138,0,0,0,.483-.9h-.531c0,.223-.106.329-.31.509a1.138,1.138,0,0,0-.488.9,1.141,1.141,0,0,0,.488.907c.2.18.308.287.308.509S52.85,3.157,52.648,3.338Z" transform="translate(-38.33 0)"/></svg>