<svg xmlns="http://www.w3.org/2000/svg" width="20.314" height="11.427" viewBox="0 0 20.314 11.427"><g class="a"><path d="M21.043,32.448a.209.209,0,0,0,.219-.2V31.005a1.421,1.421,0,0,0,1.181-1.344V28.178a1.886,1.886,0,0,0,1.422-1.957,2.021,2.021,0,0,0-2.012-1.72,2.844,2.844,0,0,0-.591.059V22.879A1.881,1.881,0,0,0,19.294,21.1H8.139a1.881,1.881,0,0,0-1.968,1.779V24.56A2.844,2.844,0,0,0,5.58,24.5a2.021,2.021,0,0,0-2.012,1.72A1.886,1.886,0,0,0,4.99,28.178v1.483a1.421,1.421,0,0,0,1.181,1.344V32.33a.23.23,0,0,0,.219.2.209.209,0,0,0,.219-.2V31.045H20.825v1.206a.168.168,0,0,0,.056.147A.21.21,0,0,0,21.043,32.448ZM6.608,22.879A1.463,1.463,0,0,1,8.139,21.5H19.294a1.463,1.463,0,0,1,1.531,1.384v1.839a1.512,1.512,0,0,0-.481.316,1.875,1.875,0,0,0-.569.85H7.658a1.875,1.875,0,0,0-.569-.85,1.512,1.512,0,0,0-.481-.316Zm1.115,3.4H19.709v1.938H7.724Zm-2.3,3.381V28.02a.2.2,0,0,0-.175-.2A1.5,1.5,0,0,1,4.006,26.24,1.6,1.6,0,0,1,5.6,24.9h.044a1.666,1.666,0,0,1,1.137.415,1.437,1.437,0,0,1,.5,1.068v2.036a.23.23,0,0,0,.219.2H19.928a.23.23,0,0,0,.219-.2V26.379a1.437,1.437,0,0,1,.5-1.068,1.669,1.669,0,0,1,1.181-.415,1.6,1.6,0,0,1,1.6,1.344h0a1.5,1.5,0,0,1-1.247,1.582.2.2,0,0,0-.175.2v1.641a1.045,1.045,0,0,1-1.094.989H6.521A1.045,1.045,0,0,1,5.427,29.661Z" transform="translate(-3.559 -21.1)"/></g></svg>