<?xml version="1.0" encoding="utf-8"?>
<!-- Generator: Adobe Illustrator 22.1.0, SVG Export Plug-In . SVG Version: 6.00 Build 0)  -->
<svg version="1.1" id="图层_1" xmlns="http://www.w3.org/2000/svg" xmlns:xlink="http://www.w3.org/1999/xlink" x="0px" y="0px"
	 viewBox="0 0 27.7 27.7" style="enable-background:new 0 0 27.7 27.7;" xml:space="preserve">
<path d="M25.3,4.9H14.2l3.5-3.5c0.3-0.3,0.3-0.8,0-1.1c-0.3-0.3-0.8-0.3-1.1,0l-4.3,4.3L7.9,0.2c-0.3-0.3-0.8-0.3-1.1,0
	s-0.3,0.8,0,1.1l3.5,3.5H2.4C1.1,4.9,0,6,0,7.4v16.3c0,1.3,1.1,2.4,2.4,2.4h1.3l-0.2,0.2c-0.3,0.3-0.3,0.8,0,1.1
	c0.2,0.2,0.4,0.2,0.6,0.2c0.2,0,0.4-0.1,0.6-0.2l1.4-1.4h15.6l1.4,1.4c0.2,0.2,0.4,0.2,0.6,0.2c0.2,0,0.4-0.1,0.6-0.2
	c0.3-0.3,0.3-0.8,0-1.1L24,26.1h1.3c1.3,0,2.4-1.1,2.4-2.4V7.4C27.7,6,26.6,4.9,25.3,4.9z M26.1,23.7c0,0.4-0.4,0.8-0.8,0.8H2.4
	c-0.4,0-0.8-0.4-0.8-0.8V7.4c0-0.4,0.4-0.8,0.8-0.8h22.9c0.4,0,0.8,0.4,0.8,0.8V23.7z"/>
<path d="M17.1,8.2H5.7c-1.3,0-2.4,1.1-2.4,2.4v9.8c0,1.3,1.1,2.4,2.4,2.4h11.4c1.3,0,2.4-1.1,2.4-2.4v-9.8
	C19.6,9.3,18.5,8.2,17.1,8.2z M17.9,20.4c0,0.4-0.4,0.8-0.8,0.8H5.7c-0.4,0-0.8-0.4-0.8-0.8v-9.8c0-0.4,0.4-0.8,0.8-0.8h11.4
	c0.4,0,0.8,0.4,0.8,0.8V20.4z"/>
<path d="M22.9,9c-0.9,0-1.6,0.7-1.6,1.6s0.7,1.6,1.6,1.6s1.6-0.7,1.6-1.6S23.8,9,22.9,9z"/>
<path d="M23.7,13.9H22c-0.4,0-0.8,0.4-0.8,0.8c0,0.4,0.4,0.8,0.8,0.8h1.6c0.4,0,0.8-0.4,0.8-0.8C24.5,14.2,24.1,13.9,23.7,13.9z"/>
<path d="M23.7,17.1H22c-0.4,0-0.8,0.4-0.8,0.8c0,0.4,0.4,0.8,0.8,0.8h1.6c0.4,0,0.8-0.4,0.8-0.8C24.5,17.5,24.1,17.1,23.7,17.1z"/>
<path d="M23.7,20.4H22c-0.4,0-0.8,0.4-0.8,0.8S21.6,22,22,22h1.6c0.4,0,0.8-0.4,0.8-0.8S24.1,20.4,23.7,20.4z"/>
</svg>
