<svg xmlns="http://www.w3.org/2000/svg" width="18.383" height="12" viewBox="0 0 18.383 12"><g transform="translate(-1003 -611)"><path d="M31.106,28H15.277A1.278,1.278,0,0,0,14,29.277v4.851A1.278,1.278,0,0,0,15.277,35.4h15.83a1.278,1.278,0,0,0,1.277-1.277V29.277A1.278,1.278,0,0,0,31.106,28Zm-15.83.511h15.83a.767.767,0,0,1,.766.766v3.574H14.511V29.277A.767.767,0,0,1,15.277,28.511Zm6.894,6.383H16.809v-.511H29.574v.511h-7.4Zm8.936,0H30.085V33.872H16.3v1.021H15.277a.767.767,0,0,1-.766-.766v-.766H31.872v.766A.767.767,0,0,1,31.106,34.894Z" transform="translate(989 583)"/><rect width="2.043" height="0.511" transform="translate(1004.277 614.319)"/><rect width="0.511" height="0.511" transform="translate(1006.83 614.319)"/><path d="M25.021,61h-.511a.578.578,0,0,1-.194.429,1.074,1.074,0,0,0,0,1.523.573.573,0,0,1,0,.859,1.065,1.065,0,0,0-.317.762h.511a.577.577,0,0,1,.194-.43,1.075,1.075,0,0,0,0-1.524.573.573,0,0,1,0-.859A1.063,1.063,0,0,0,25.021,61Z" transform="translate(981.553 558.426)"/><path d="M37.021,61h-.511a.578.578,0,0,1-.194.429,1.074,1.074,0,0,0,0,1.523.573.573,0,0,1,0,.859,1.065,1.065,0,0,0-.317.762h.511a.577.577,0,0,1,.194-.43,1.075,1.075,0,0,0,0-1.524.573.573,0,0,1,0-.859A1.063,1.063,0,0,0,37.021,61Z" transform="translate(972.617 558.426)"/><path d="M49.021,61h-.511a.578.578,0,0,1-.194.429,1.074,1.074,0,0,0,0,1.523.573.573,0,0,1,0,.859,1.065,1.065,0,0,0-.317.762h.511a.577.577,0,0,1,.194-.43,1.075,1.075,0,0,0,0-1.524.573.573,0,0,1,0-.859A1.063,1.063,0,0,0,49.021,61Z" transform="translate(963.681 558.426)"/><path d="M61.021,61h-.511a.578.578,0,0,1-.194.429,1.074,1.074,0,0,0,0,1.523.573.573,0,0,1,0,.859,1.065,1.065,0,0,0-.317.762h.511a.577.577,0,0,1,.194-.43,1.075,1.075,0,0,0,0-1.524.573.573,0,0,1,0-.859A1.063,1.063,0,0,0,61.021,61Z" transform="translate(954.745 558.426)"/><path d="M73.021,61h-.511a.578.578,0,0,1-.194.429,1.074,1.074,0,0,0,0,1.523.573.573,0,0,1,0,.859,1.065,1.065,0,0,0-.317.762h.511a.577.577,0,0,1,.194-.43,1.075,1.075,0,0,0,0-1.524.573.573,0,0,1,0-.859A1.063,1.063,0,0,0,73.021,61Z" transform="translate(945.809 558.426)"/></g></svg>