<?xml version="1.0" encoding="utf-8"?>
<!-- Generator: Adobe Illustrator 22.1.0, SVG Export Plug-In . SVG Version: 6.00 Build 0)  -->
<svg version="1.1" id="图层_1" xmlns="http://www.w3.org/2000/svg" xmlns:xlink="http://www.w3.org/1999/xlink" x="0px" y="0px"
	 viewBox="0 0 85 85" style="enable-background:new 0 0 85 85;" xml:space="preserve">
<style type="text/css">
	.st0{fill:#8C9A65;}
</style>
<g transform="translate(251.3 -376.6)">
	<path class="st0" d="M-208.8,376.6c-23.5,0-42.5,19.1-42.5,42.5c0,23.5,19.1,42.5,42.5,42.5c23.5,0,42.5-19.1,42.5-42.5
		C-166.3,395.7-185.3,376.6-208.8,376.6z M-208.8,458.8c-21.9,0-39.6-17.8-39.6-39.6c0-21.9,17.8-39.6,39.6-39.6
		c21.9,0,39.6,17.8,39.6,39.6C-169.1,441-186.9,458.8-208.8,458.8z"/>
	<path class="st0" d="M-185.3,401.5l-32.2,32.2l-14.8-14.9c-0.5-0.6-1.4-0.6-2,0c0,0,0,0,0,0c-0.6,0.5-0.6,1.4,0,2c0,0,0,0,0,0
		l15.8,15.9c0.3,0.3,0.7,0.4,1.1,0.4l0,0c0.4,0,0.7-0.2,1.1-0.4l33.2-33.1c0.6-0.5,0.6-1.4,0-2c0,0,0,0,0,0
		C-183.6,400.9-184.6,400.9-185.3,401.5C-185.2,401.4-185.3,401.4-185.3,401.5z"/>
</g>
</svg>
