<svg xmlns="http://www.w3.org/2000/svg" width="18.021" height="18.021" viewBox="0 0 18.021 18.021"><g class="a" transform="translate(-1133 -552.337)"><path d="M19.01,10a9.01,9.01,0,1,0,9.01,9.01A9.021,9.021,0,0,0,19.01,10Zm0,17.57a8.56,8.56,0,1,1,8.56-8.56A8.57,8.57,0,0,1,19.01,27.57Z" transform="translate(1123 542.337)"/><path d="M26.278,32.926a.225.225,0,0,0,.4,0l.644-1.3,1.439-.209a.225.225,0,0,0,.125-.384l-1.041-1.015.246-1.434a.225.225,0,0,0-.327-.237l-1.287.677-1.287-.677a.225.225,0,0,0-.327.237l.246,1.434L24.07,31.028a.225.225,0,0,0,.125.384l1.439.209Zm-.767-2.673a.225.225,0,0,0,.065-.2l-.189-1.1.988.52a.225.225,0,0,0,.21,0l.988-.52-.189,1.1a.226.226,0,0,0,.065.2l.8.779-1.1.16a.225.225,0,0,0-.17.123l-.494,1-.494-1a.225.225,0,0,0-.17-.123l-1.1-.16Z" transform="translate(1112.152 528.146)"/><path d="M57.844,30.013l.246-1.434a.225.225,0,0,0-.327-.237l-1.287.677-1.287-.677a.225.225,0,0,0-.327.237l.246,1.434-1.041,1.015a.225.225,0,0,0,.125.384l1.439.209.644,1.3a.225.225,0,0,0,.4,0l.644-1.3,1.439-.209a.225.225,0,0,0,.125-.384Zm-.7,1.18a.225.225,0,0,0-.17.123l-.494,1-.494-1a.225.225,0,0,0-.17-.123l-1.1-.16.8-.779a.226.226,0,0,0,.065-.2l-.189-1.1.988.52a.225.225,0,0,0,.21,0l.988-.52-.189,1.1a.225.225,0,0,0,.065.2l.8.779Z" transform="translate(1088.913 528.146)"/><path d="M38.955,55.534h0l-8.428.011a.225.225,0,0,0-.218.282,4.577,4.577,0,0,0,8.864-.012.225.225,0,0,0-.218-.281Zm-6.206,2.757a2.976,2.976,0,0,1,3.982,0,4.111,4.111,0,0,1-3.982,0Zm4.378-.247a3.425,3.425,0,0,0-4.774,0A4.113,4.113,0,0,1,30.828,56l7.826-.01A4.111,4.111,0,0,1,37.127,58.044Z" transform="translate(1107.272 507.059)"/></g></svg>