<svg xmlns="http://www.w3.org/2000/svg" width="18.321" height="17.587" viewBox="0 0 18.321 17.587"><g class="a" transform="translate(0 0)"><path d="M14.347,21.439H1.774c-.55,0-1.181-.121-1.181-1.07V6.135c0-.948.631-1.07,1.181-1.07H14.347a.3.3,0,0,1,0,.6H1.774c-.522,0-.579.095-.579.468V20.369c0,.373.057.468.579.468H14.347a.3.3,0,0,1,0,.6Z" transform="translate(-0.593 -4.441)"/><path d="M21.046,27.989h-9.6a.86.86,0,0,1-.859-.859V16.192a.86.86,0,0,1,.859-.859h9.6a.86.86,0,0,1,.859.859V27.13A.86.86,0,0,1,21.046,27.989Zm0-12.054h-9.6a.257.257,0,0,0-.257.257V27.13a.257.257,0,0,0,.257.257h9.6a.257.257,0,0,0,.257-.257V16.192A.257.257,0,0,0,21.046,15.935Z" transform="translate(-8.757 -12.827)"/><path d="M76.548,19.244h-2.1a.3.3,0,0,1-.3-.3V1.958a.3.3,0,0,1,.3-.3h2.1a1.548,1.548,0,0,1,1.385,1.668V17.576a1.856,1.856,0,0,1-.383,1.154A1.273,1.273,0,0,1,76.548,19.244Zm-1.794-.6h1.794a.685.685,0,0,0,.53-.286,1.253,1.253,0,0,0,.252-.78V3.325c0-.588-.351-1.066-.783-1.066H74.754V18.643Z" transform="translate(-60.675 -1.657)"/><path d="M92.865,15.589H91.8a.3.3,0,0,1,0-.6h.763V12.7H91.8a.3.3,0,0,1,0-.6h1.064a.3.3,0,0,1,.3.3v2.889A.3.3,0,0,1,92.865,15.589Z" transform="translate(-74.845 -10.185)"/><path d="M24.831,43.38H23.448a.674.674,0,0,1-.691-.688v-3.54a1.879,1.879,0,0,1,.395-1.081l.191-2.227a.554.554,0,0,1-.079-.313V35.3a.468.468,0,0,1,.454-.48h.813a.468.468,0,0,1,.454.48v.252a.5.5,0,0,1-.078.311l.2,2.191a1.908,1.908,0,0,1,.414,1.172v3.54A.655.655,0,0,1,24.831,43.38Zm-1.293-4.846a1.562,1.562,0,0,0-.179.618v3.54c0,.032,0,.086.089.086h1.384a.138.138,0,0,0,.089-.028V39.228a1.682,1.682,0,0,0-.178-.691.306.306,0,0,1-.218-.26l-.233-2.539a.3.3,0,0,1,.077-.23l.014-.015v-.07h-.518v.07l.02.022a.3.3,0,0,1,.071.221l-.218,2.54A.3.3,0,0,1,23.538,38.534Z" transform="translate(-18.696 -28.745)"/><path d="M47.8,43.38H46.417a.674.674,0,0,1-.691-.688v-3.54a1.879,1.879,0,0,1,.395-1.081l.191-2.227a.554.554,0,0,1-.079-.313V35.3a.468.468,0,0,1,.454-.48H47.5a.468.468,0,0,1,.454.48v.252a.494.494,0,0,1-.078.312l.2,2.191a1.909,1.909,0,0,1,.414,1.172v3.54A.655.655,0,0,1,47.8,43.38Zm-1.293-4.846a1.562,1.562,0,0,0-.179.618v3.54c0,.032,0,.086.089.086H47.8a.139.139,0,0,0,.089-.028V39.228a1.682,1.682,0,0,0-.178-.691.3.3,0,0,1-.218-.26l-.233-2.539a.3.3,0,0,1,.077-.23l.015-.015v-.069h-.518v.07l.02.022a.3.3,0,0,1,.071.221l-.218,2.54A.3.3,0,0,1,46.507,38.534Z" transform="translate(-37.457 -28.745)"/></g></svg>