<svg xmlns="http://www.w3.org/2000/svg" width="16.186" height="17.666" viewBox="0 0 16.186 17.666"><path d="M99.214,70.864c-.009-.122-.013-.244-.017-.374v-.028A2.163,2.163,0,0,0,97.378,68.3a3.148,3.148,0,0,0-2.572-.733L84.89,69.151l-.135.022L83.31,69.4v.24a3.489,3.489,0,0,0,1.809,3.324,8.715,8.715,0,0,0,4.148.759h1.575a.558.558,0,0,1,.507.792l-1.25,2.71a4.1,4.1,0,0,0-1.7.884A4.964,4.964,0,0,0,86.918,80.4H85.562v2.211a2.489,2.489,0,0,0,2.123,2.57l.008.012h6.655l.084-.12a5.261,5.261,0,0,0,.94-3.045,5.574,5.574,0,0,0-.046-.718h3.092V76.129a1.458,1.458,0,0,0,.608-.389,1.739,1.739,0,0,0,.469-1.13v-.017Zm-15.336-.981.877-.141v.914h-.772A4.08,4.08,0,0,1,83.878,69.883Zm2.247,11.076h.749a1.065,1.065,0,0,1-.749.781Zm7.93,3.669H87.985l0,0-.141,0a1.9,1.9,0,0,1-1.718-2.016v-.332a1.586,1.586,0,0,0,1.3-1.558v-.046a4.413,4.413,0,0,1,1.337-2.13,3.639,3.639,0,0,1,1.02-.621,3.345,3.345,0,0,1,2.554.03l.391.166V76.431A2.062,2.062,0,0,1,94.5,78.47v1.84l.017.047q.07.191.122.388a4.817,4.817,0,0,1,.115.562,4.992,4.992,0,0,1,.052.718A4.718,4.718,0,0,1,94.054,84.627Zm3.8-3.882H95.222a5.331,5.331,0,0,0-.156-.533V78.47a2.624,2.624,0,0,0-2.621-2.621h-.281v1.44a3.888,3.888,0,0,0-1.141-.171c-.086,0-.172,0-.257.009l1.1-2.374a1.12,1.12,0,0,0-1.017-1.59H89.268c-2.848,0-4.466-.6-5.091-1.946h1.141V69.652l9.577-1.533a2.6,2.6,0,0,1,1.662.285,2.266,2.266,0,0,0-1.39,1.886l0,.036c-.015.127-.028.247-.047.366l-.6,3.72,0,.033a1.569,1.569,0,0,0,1.4,1.707l1.938.039Zm.764-5.392a.954.954,0,0,1-.2.161.791.791,0,0,1-.443.116l-.12,0-1.917-.039a1.008,1.008,0,0,1-.864-1.105l.594-3.7c.021-.132.036-.264.051-.391l0-.036a1.608,1.608,0,0,1,1.421-1.5c.033,0,.067,0,.1,0a1.317,1.317,0,0,1,.843.366,1.8,1.8,0,0,1,.546,1.262v.028c0,.13.008.265.018.4l.28,3.7A1.175,1.175,0,0,1,98.62,75.353Z" transform="translate(-83.31 -67.523)"/><rect width="2.713" height="0.562" transform="translate(5.673 14.644)"/><rect width="2.669" height="0.562" transform="translate(8.287 16.441) rotate(-169.135)"/><rect width="0.75" height="0.842" transform="translate(5.304 12.751)"/><rect width="0.937" height="1.029" transform="translate(8.616 2.21)"/></svg>