<svg xmlns="http://www.w3.org/2000/svg" width="11.202" height="19.725" viewBox="0 0 11.202 19.725"><path d="M30.792,14a1.116,1.116,0,0,0-1.108,1.118V31.613a1.116,1.116,0,0,0,1.108,1.118h.31V33a.713.713,0,1,0,1.425,0v-.272H38.05V33a.713.713,0,1,0,1.425,0v-.272h.31a1.114,1.114,0,0,0,1.1-1.118V15.118A1.114,1.114,0,0,0,39.786,14Zm0,.435h8.994a.67.67,0,0,1,.666.683V31.613a.671.671,0,0,1-.666.683H30.792a.672.672,0,0,1-.674-.683v-9.2H40.445v-.442H30.118V15.118a.672.672,0,0,1,.674-.683Zm1.023,2.143a.712.712,0,0,0-.713.714v1.8a.717.717,0,1,0,1.433,0v-1.8a.718.718,0,0,0-.72-.714Zm0,.435a.273.273,0,0,1,.279.28v1.8a.269.269,0,0,1-.279.28.273.273,0,0,1-.279-.28v-1.8a.278.278,0,0,1,.279-.28Zm0,8.216a.711.711,0,0,0-.713.714v2.819a.717.717,0,0,0,1.433,0V25.944a.718.718,0,0,0-.72-.714Zm0,.435a.273.273,0,0,1,.279.28v2.819a.273.273,0,0,1-.279.28.278.278,0,0,1-.279-.28v-2.82a.278.278,0,0,1,.279-.279Zm-.279,7.067h.55V33a.269.269,0,0,1-.271.287A.28.28,0,0,1,31.536,33v-.272Zm6.949,0h.55V33a.274.274,0,0,1-.271.287A.28.28,0,0,1,38.485,33v-.272Z" transform="translate(-29.684 -14)"/></svg>