<svg xmlns="http://www.w3.org/2000/svg" width="18.636" height="16.124" viewBox="0 0 18.636 16.124"><g class="a"><path d="M18.974,56.258a1.153,1.153,0,0,0-1.134-.821,1.287,1.287,0,0,0-.553.126c-.609.287-2.785,1.309-3.8,1.762a1.209,1.209,0,0,0-1.176-.934H10.153a5.834,5.834,0,0,1-1.73-.348,6.719,6.719,0,0,0-2.036-.393,5.06,5.06,0,0,0-2.714.743c-.3.155-.637.327-1.047.506v-.619H.373v.563h1.69v5.07H.373v.563H2.626v-.956a17.524,17.524,0,0,1,3.578-.31h.211a10.794,10.794,0,0,1,3.037.324,2.5,2.5,0,0,0,1.679-.161c1.92-.834,5.091-2.495,6.928-3.555C18.782,57.4,19.124,56.817,18.974,56.258Zm-1.2,1.072c-1.824,1.053-4.969,2.7-6.871,3.526a1.939,1.939,0,0,1-1.313.133,11.286,11.286,0,0,0-3.179-.342H6.2a18.538,18.538,0,0,0-3.574.3V57.513c.534-.222.941-.431,1.3-.618a4.55,4.55,0,0,1,2.456-.681,6.275,6.275,0,0,1,1.87.368,6.355,6.355,0,0,0,1.9.372H12.31a.643.643,0,0,1,.636.562.827.827,0,0,1-.819.737H6.944v.563h5.182a1.392,1.392,0,0,0,1.276-.84c.906-.388,4.093-1.889,4.126-1.9A.726.726,0,0,1,17.84,56a.6.6,0,0,1,.59.4C18.51,56.7,18.266,57.048,17.778,57.33Z" transform="translate(-0.373 -46.354)"/><path d="M21.526,15.677H33.491a1.169,1.169,0,0,0,1.152-1.183v-.506H33.337a5.883,5.883,0,0,0-4.265-5.6,1.585,1.585,0,0,0-3.125,0,5.883,5.883,0,0,0-4.265,5.6H20.374v.506A1.169,1.169,0,0,0,21.526,15.677Zm5.982-8.05a1.025,1.025,0,0,1,.939.617,5.739,5.739,0,0,0-1.878,0A1.025,1.025,0,0,1,27.509,7.627Zm0,1.1a5.3,5.3,0,0,1,5.266,5.257H22.243A5.3,5.3,0,0,1,27.509,8.73Zm-5.815,5.821H34.078a.6.6,0,0,1-.587.563H21.526a.6.6,0,0,1-.587-.563Z" transform="translate(-16.619 -7.064)"/><path d="M63.59,21.724l-.143.545a3.763,3.763,0,0,1,2.641,2.572l.541-.158A4.329,4.329,0,0,0,63.59,21.724Z" transform="translate(-51.604 -18.971)"/></g></svg>