<svg xmlns="http://www.w3.org/2000/svg" width="16.89" height="15.742" viewBox="0 0 16.89 15.742"><defs><style>.a{fill:none;stroke:#000;stroke-linecap:round;stroke-miterlimit:10;stroke-width:0.7px;}</style></defs><g transform="translate(-1134.736 -607.21)"><g transform="translate(1134.736 614.681)"><path d="M34.814,82.688,29.6,84.576a1.883,1.883,0,0,0-.6-1.635l3.528-1.278-1.054-.474-3.637,1.317a1.9,1.9,0,0,0-.912.8c-.011.022-.024.043-.034.065a1.671,1.671,0,0,0,.766,2.2,1.305,1.305,0,0,0,.977.164,1.686,1.686,0,0,0,.342-.083h0l6.885-2.494Z" transform="translate(-26.736 -77.502)"/><path d="M68.069,63.724l1.054.474,2.719-.985c.322-.112.727.166.889.611a.85.85,0,0,1-.209.995l-1.117.4,1.054.474.245-.089,0,.013a1.241,1.241,0,0,0,.162-.073l3.413-1.236a1.675,1.675,0,1,0-1.141-3.149l-3.568,1.293-.011,0h0Zm7.348-1.806a.87.87,0,0,1,.592,1.637l-2.422.877a1.91,1.91,0,0,0-.6-1.634Z" transform="translate(-60.498 -61.062)"/><path d="M53.324,74.018a.5.5,0,0,1-.454.293.473.473,0,0,1-.2-.044L38.957,68.109a.5.5,0,0,1,.205-.953.5.5,0,0,1,.2.044l13.709,6.16A.5.5,0,0,1,53.324,74.018Z" transform="translate(-36.479 -66.04)"/></g><path class="a" d="M29.349,48.481c-.679-1.084-1.486-1.943-.592-3.187.465-.648,1.049-1.118,1.142-1.983.1-.9-.438-1.45-1.1-2.1" transform="translate(1106.673 569.837)"/><g transform="translate(1136.297 607.21)"><path d="M36.644,20.281a.4.4,0,0,0-.341.189c-.082.131-.167.259-.249.385-.6.907-1.274,1.936-.329,3.25.121.168.247.322.369.471a2.48,2.48,0,0,1,.7,1.319c.074.692-.325,1.126-.984,1.775a.4.4,0,1,0,.565.573,2.9,2.9,0,0,0,1.219-2.434,3.185,3.185,0,0,0-.877-1.743c-.114-.139-.232-.283-.339-.431-.594-.827-.29-1.37.347-2.338.086-.131.173-.263.259-.4a.4.4,0,0,0-.34-.616Z" transform="translate(-35.255 -20.281)"/></g></g></svg>