<svg xmlns="http://www.w3.org/2000/svg" width="16.54" height="12.535" viewBox="0 0 16.54 12.535"><defs><style>.a{fill:#666;}</style></defs><path class="a" d="M20.664,22.626a2.29,2.29,0,0,0,1.2-2.188c0-2.491-3.478-4.3-8.272-4.3s-8.269,1.808-8.269,4.3a2.29,2.29,0,0,0,1.2,2.188.278.278,0,0,0,.19.022l1.705-.411a3.007,3.007,0,0,1-.723,1.206l-.014.016A4.068,4.068,0,0,0,6.491,26.4v2a.278.278,0,0,0,.278.278H20.414a.278.278,0,0,0,.278-.278v-2a4.067,4.067,0,0,0-1.185-2.935l-.015-.018a3.006,3.006,0,0,1-.723-1.206l1.705.41A.275.275,0,0,0,20.664,22.626Zm-1.593,1.18.015.018a3.5,3.5,0,0,1,1.05,2.573v1.722H7.046V26.4A3.5,3.5,0,0,1,8.1,23.823l.014-.016A3.154,3.154,0,0,0,9,22.1l1.11-.267a.278.278,0,0,0,.194-.169,2.8,2.8,0,0,0-.135-2.231,7.166,7.166,0,0,1,1.528-.488l.252.927a.278.278,0,0,0,.268.2H15a.277.277,0,0,0,.268-.2l.25-.92a7.207,7.207,0,0,1,1.5.482,2.8,2.8,0,0,0-.135,2.23.278.278,0,0,0,.194.169l1.11.267A3.152,3.152,0,0,0,19.071,23.806Zm-6.824-4.961a9.583,9.583,0,0,1,2.72.005l-.181.667H12.43Zm5.1,2.479a2.245,2.245,0,0,1,.281-1.838.278.278,0,0,0-.078-.4,8.125,8.125,0,0,0-3.961-.886,8.124,8.124,0,0,0-3.96.886.278.278,0,0,0-.078.4,2.243,2.243,0,0,1,.28,1.838l-3.151.759a1.791,1.791,0,0,1-.805-1.645c0-2.134,3.316-3.744,7.716-3.744s7.714,1.61,7.714,3.744a1.791,1.791,0,0,1-.805,1.645ZM13.591,21a2.954,2.954,0,1,0,2.954,2.954A2.957,2.957,0,0,0,13.591,21Zm0,5.352a2.4,2.4,0,1,1,2.4-2.4A2.4,2.4,0,0,1,13.591,26.351Zm0-2.958a.559.559,0,1,0,.559.559A.559.559,0,0,0,13.591,23.393Zm0-.7a.35.35,0,1,0-.35-.35A.35.35,0,0,0,13.591,22.693Zm0,2.519a.35.35,0,1,0,.35.35A.35.35,0,0,0,13.591,25.212Zm1.259-1.26a.35.35,0,1,0,.35-.35A.35.35,0,0,0,14.851,23.952Zm-2.519,0a.35.35,0,1,0-.35.35A.35.35,0,0,0,12.332,23.952Zm2.415-.788a.35.35,0,1,0-.35-.35A.35.35,0,0,0,14.747,23.164ZM12.471,24.74a.35.35,0,1,0,.35.35A.35.35,0,0,0,12.471,24.74Zm2.276,0a.35.35,0,1,0,.35.35A.35.35,0,0,0,14.747,24.74Zm-2.276-2.275a.35.35,0,1,0,.35.349A.35.35,0,0,0,12.471,22.465Z" transform="translate(-5.321 -16.139)"/></svg>