<svg xmlns="http://www.w3.org/2000/svg" width="20" height="15.319" viewBox="0 0 20 15.319"><path d="M13,14a14.025,14.025,0,0,0-9.874,4.162.426.426,0,1,0,.6.605A13.181,13.181,0,0,1,13,14.851a13.182,13.182,0,0,1,9.275,3.916.426.426,0,1,0,.6-.605A14.026,14.026,0,0,0,13,14Zm0,3.83a10.223,10.223,0,0,0-7.108,2.886.428.428,0,0,0,.6.612,9.329,9.329,0,0,1,13.019,0,.428.428,0,0,0,.6-.612A10.223,10.223,0,0,0,13,17.83Zm0,3.83a6.056,6.056,0,0,0-4.342,1.822.426.426,0,1,0,.6.605,5.234,5.234,0,0,1,7.487,0,.426.426,0,1,0,.6-.605A6.058,6.058,0,0,0,13,21.66Zm0,3.83A1.915,1.915,0,1,0,14.915,27.4,1.921,1.921,0,0,0,13,25.489Zm0,.851A1.064,1.064,0,1,1,11.936,27.4,1.057,1.057,0,0,1,13,26.34Z" transform="translate(-3 -14)"/></svg>