<svg xmlns="http://www.w3.org/2000/svg" width="18.079" height="13.204" viewBox="0 0 18.079 13.204"><defs><style>.b{fill-rule:evenodd;}</style></defs><g class="a" transform="translate(0 0)"><g transform="translate(0 0)"><path class="b" d="M30.071-70.343a1.016,1.016,0,0,1-1.016,1.016,1.016,1.016,0,0,1-1.016-1.016,1.016,1.016,0,0,1,1.016-1.016A1.016,1.016,0,0,1,30.071-70.343Zm-8.532,0a1.016,1.016,0,0,1-1.016,1.016,1.016,1.016,0,0,1-1.016-1.016,1.016,1.016,0,0,1,1.016-1.016A1.016,1.016,0,0,1,21.539-70.343Zm5.485,0a2.032,2.032,0,0,0,2.031,2.031,2.032,2.032,0,0,0,2.031-2.031,2.032,2.032,0,0,0-2.031-2.031A2.032,2.032,0,0,0,27.024-70.343Zm-8.532,0a2.032,2.032,0,0,0,2.031,2.031,2.032,2.032,0,0,0,2.031-2.031,2.032,2.032,0,0,0-2.031-2.031A2.032,2.032,0,0,0,18.492-70.343Zm3.416,7.764H19.143v-1.016h2.766Zm-2.766,2.9a.508.508,0,0,0,.508.508.508.508,0,0,0,.508-.508v-1.828l-.012-.056h.738l-.011.056v1.828a.508.508,0,0,0,.508.508.508.508,0,0,0,.508-.508v-1.828l-.012-.056h.533a.508.508,0,0,0,.508-.505v-3.923L24.634-64.3a.508.508,0,0,0,.717,0l1.484-1.479-.575,4.042a.508.508,0,0,0,.5.579h.911v1.478a.508.508,0,0,0,.508.508.508.508,0,0,0,.508-.508v-1.478H29.4v1.478a.508.508,0,0,0,.508.508.508.508,0,0,0,.508-.508v-1.478h.927a.508.508,0,0,0,.5-.579l-.575-4.042L32.759-64.3a.508.508,0,0,0,.718,0,.508.508,0,0,0,0-.718l-2.559-2.551a.508.508,0,0,0-.861.431l.706,4.965H27.348l.706-4.965a.508.508,0,0,0-.861-.431l-2.2,2.193-2.2-2.193a.508.508,0,0,0-.866.357v2.6H19.121v-2.6a.508.508,0,0,0-.866-.357L15.7-65.018a.508.508,0,0,0,0,.718.508.508,0,0,0,.718,0l1.717-1.693v3.923a.508.508,0,0,0,.508.505h.516l-.011.056Z" transform="translate(-15.547 72.374)"/></g></g></svg>